<?xml version="1.0" standalone="no"?>
<!DOCTYPE svg PUBLIC "-//W3C//DTD SVG 20010904//EN"
 "http://www.w3.org/TR/2001/REC-SVG-20010904/DTD/svg10.dtd">
<svg version="1.0" xmlns="http://www.w3.org/2000/svg"
 width="552.000000pt" height="552.000000pt" viewBox="0 0 552.000000 552.000000"
 preserveAspectRatio="xMidYMid meet">
<metadata>
Created by potrace 1.11, written by Peter Selinger 2001-2013
</metadata>
<g transform="translate(0.000000,552.000000) scale(0.100000,-0.100000)"
fill="#000000" stroke="none">
<path d="M4747 5514 c-1 -1 -61 -5 -132 -9 -72 -3 -161 -8 -198 -10 -37 -3
-114 -7 -170 -10 -167 -9 -277 -14 -367 -20 -154 -9 -378 -21 -565 -30 -66 -3
-149 -8 -185 -10 -36 -3 -117 -7 -180 -10 -63 -3 -155 -8 -205 -11 -107 -6
-192 -11 -340 -18 -60 -3 -150 -8 -200 -11 -49 -3 -130 -7 -180 -10 -228 -11
-295 -15 -370 -20 -44 -3 -134 -7 -200 -10 -66 -3 -149 -8 -185 -10 -36 -3
-112 -7 -170 -10 -58 -3 -145 -7 -195 -10 -49 -3 -135 -8 -190 -11 -316 -16
-383 -21 -424 -28 -76 -15 -155 -75 -193 -148 -20 -38 -23 -56 -22 -158 2
-111 7 -232 19 -390 5 -68 8 -127 20 -335 5 -87 14 -239 19 -325 3 -36 7 -114
11 -175 3 -60 8 -146 11 -190 3 -44 7 -114 9 -155 2 -41 6 -115 10 -165 3 -49
8 -128 10 -175 3 -47 7 -119 10 -160 2 -41 7 -113 10 -160 2 -47 7 -128 10
-180 4 -52 8 -128 10 -169 2 -40 7 -114 10 -165 3 -50 8 -125 10 -166 3 -41 7
-113 10 -160 2 -47 7 -128 10 -180 3 -52 7 -124 10 -160 2 -36 6 -114 10 -175
3 -60 8 -139 11 -175 2 -36 6 -112 10 -170 3 -58 7 -132 9 -165 2 -33 6 -107
9 -165 3 -58 8 -136 11 -175 3 -38 7 -113 10 -165 8 -130 12 -155 36 -202 28
-54 74 -100 129 -129 39 -19 60 -23 150 -23 58 0 166 3 240 8 74 4 164 9 200
11 123 7 265 15 370 20 129 7 237 13 355 20 98 5 275 15 370 20 129 6 323 17
391 21 40 2 114 6 165 9 117 6 269 14 374 20 44 2 125 7 180 10 55 3 143 8
195 11 52 3 133 7 180 9 265 13 311 16 370 20 36 2 117 7 180 10 63 3 151 7
195 10 139 8 257 15 360 20 55 3 136 7 180 10 44 3 124 7 178 9 149 7 236 56
288 163 27 54 30 136 15 373 -11 167 -13 195 -20 335 -4 66 -9 147 -11 180 -3
33 -7 103 -10 155 -3 52 -7 129 -10 170 -5 85 -12 210 -20 350 -3 52 -8 129
-11 170 -3 41 -7 109 -9 150 -2 41 -6 118 -9 170 -13 219 -16 269 -21 347 -2
45 -7 119 -10 165 -10 154 -15 233 -20 338 -3 58 -8 139 -11 180 -3 41 -7 110
-9 152 -5 84 -12 217 -20 348 -3 47 -7 117 -10 155 -3 39 -7 113 -10 165 -3
52 -8 136 -11 185 -3 50 -7 122 -9 160 -2 39 -6 111 -10 160 -3 50 -8 126 -10
170 -5 94 -14 231 -21 297 -8 85 -70 169 -153 210 -39 19 -63 23 -159 23 -61
1 -113 0 -115 -1z"/>
</g>
</svg>
